<?xml version="1.0" encoding="UTF-8" standalone="no"?>
<svg width="64px" height="64px" viewBox="0 0 64 64" version="1.1" xmlns="http://www.w3.org/2000/svg" xmlns:xlink="http://www.w3.org/1999/xlink">
    <!-- Generator: Sketch 39.1 (31720) - http://www.bohemiancoding.com/sketch -->
    <title>icon_nvitation_share_xinlan</title>
    <desc>Created with Sketch.</desc>
    <defs></defs>
    <g id="1.3.7" stroke="none" stroke-width="1" fill="none" fill-rule="evenodd">
        <g id="分享－抽奖" transform="translate(-546.000000, -869.000000)">
            <g id="Group-45" transform="translate(0.000000, 852.000000)">
                <g id="Group-40" transform="translate(126.000000, 17.000000)">
                    <g id="icon_nvitation_share_xinlan" transform="translate(420.000000, 0.000000)">
                        <path d="M32,64 C49.673112,64 64,49.673112 64,32 C64,14.326888 49.673112,0 32,0 C14.326888,0 0,14.326888 0,32 C0,49.673112 14.326888,64 32,64 Z" id="Oval-3-Copy-8" fill="#F1714B"></path>
                        <g id="Group-39" transform="translate(8.000000, 12.000000)">
                            <path d="M0.192611693,28.0019049 C0.192611693,22.8702251 4.30569997,15.8866625 9.65738206,12.259582 C15.0090642,8.63250147 21.4020172,6.99877271 23.8800917,8.62412785 C26.3581661,10.249483 23.7703204,13.8518836 23.7703204,13.8518836 C23.7703204,13.8518836 29.1104476,10.9555077 33.6950634,12.6857529 C38.2796792,14.4159981 36.0042594,20.0492113 36.0042594,20.0492113 C36.0042594,20.0492113 40.4164425,20.3167249 41.6554788,24.5083608 C42.8945151,28.6999968 38.4272261,36.5773294 27.7696381,39.4023083 C17.1120501,42.2272871 7.12060306,37.7536647 4.13278078,34.7951489 C1.1449585,31.8366331 0.246417945,28.4633411 0.246417945,28.4633411 L0.192611693,28.0019049 Z M19.8857143,36.72 C27.8386147,36.72 34.2857143,32.7621972 34.2857143,27.88 C34.2857143,22.9978028 27.8386147,19.04 19.8857143,19.04 C11.9328139,19.04 5.48571429,22.9978028 5.48571429,27.88 C5.48571429,32.7621972 11.9328139,36.72 19.8857143,36.72 Z M17.1428571,32.64 C20.551243,32.64 23.3142857,30.5088754 23.3142857,27.88 C23.3142857,25.2511246 20.551243,23.12 17.1428571,23.12 C13.7344713,23.12 10.9714286,25.2511246 10.9714286,27.88 C10.9714286,30.5088754 13.7344713,32.64 17.1428571,32.64 Z" id="Combined-Shape" fill="#FFFFFF"></path>
                            <path d="M34.2857143,6.8 C34.2857143,6.8 38.4,8.16 39.7714286,10.2 C41.1428571,12.24 41.8285714,14.28 41.8285714,14.28" id="Path-6" stroke="#FFFFFF" stroke-width="2" stroke-linecap="round" stroke-linejoin="round"></path>
                            <path d="M34.2857143,0.68 C34.2857143,0.68 38.4,2.11138573e-07 43.2,4.08000012 C48,8.16000003 48,14.28 48,14.28" id="Path-7" stroke="#FFFFFF" stroke-width="2" stroke-linecap="round" stroke-linejoin="round"></path>
                        </g>
                    </g>
                </g>
            </g>
        </g>
    </g>
</svg>