<?xml version="1.0" encoding="UTF-8" standalone="no"?>
<svg width="64px" height="64px" viewBox="0 0 64 64" version="1.1" xmlns="http://www.w3.org/2000/svg" xmlns:xlink="http://www.w3.org/1999/xlink">
    <!-- Generator: Sketch 39.1 (31720) - http://www.bohemiancoding.com/sketch -->
    <title>icon_nvitation_share_qqzone</title>
    <desc>Created with Sketch.</desc>
    <defs></defs>
    <g id="1.3.7" stroke="none" stroke-width="1" fill="none" fill-rule="evenodd">
        <g id="分享－抽奖" transform="translate(-441.000000, -869.000000)">
            <g id="Group-45" transform="translate(0.000000, 852.000000)">
                <g id="Group-40" transform="translate(126.000000, 17.000000)">
                    <g id="icon_nvitation_share_qqzone" transform="translate(315.000000, 0.000000)">
                        <ellipse id="Oval-3-Copy-7" fill="#FFCA00" cx="32" cy="32" rx="32" ry="32"></ellipse>
                        <path d="M43.9706018,39.4540784 C43.6648139,38.2752903 43.4564938,37.5201163 43.4564938,37.5201163 C43.4564938,37.5201163 55.3325294,28.1420402 54.7917009,26.4710201 C54.2508724,24.8 39.1268299,24.1947811 39.1268299,24.1947811 C39.1268299,24.1947811 33.5917009,10 32.1212866,10 C30.6508724,10 25.1157434,24.1947811 25.1157434,24.1947811 C25.1157434,24.1947811 10.2508723,24.8 9.45087237,26.4710201 C8.6508724,28.1420402 20.7860795,37.5201163 20.7860795,37.5201163 C20.7860795,37.5201163 16.650872,52 18.1102001,53.1216904 C19.5695281,54.2433809 32.1212866,45.7556263 32.1212866,45.7556263 C32.1212866,45.7556263 44.8138743,54.2433809 46.1323732,53.1216904 C47.0964507,52.3015179 45.2200325,44.3394732 44.1415834,40.1182338 C46.1752917,39.8478279 47.2326523,39.6 47.0508734,39.6 C46.9449863,39.6 45.717885,39.5439393 43.9706018,39.4540784 Z M43.9706018,39.4540784 C44.0247451,39.6627964 44.081944,39.884795 44.1415834,40.1182338 C41.7001769,40.442848 37.8517273,40.8 33.0508724,40.8 C24.2508724,40.8 23.0508723,40.4 23.4508723,39.6 C23.8508723,38.8 35.8508717,30.8 36.2508717,30.4 C36.6508717,30 32.2508727,29.6 29.0508727,29.6 C25.8508727,29.6 20.2508724,29.2 21.0508724,29.2 C21.8508724,29.2 26.6508724,27.6 33.0508722,27.6 C39.4508721,27.6 43.0508724,28.4 43.0508724,28.8 C43.0508724,29.2 36.6508724,33.6 35.0508724,34.8 C33.4508724,36 30.2508724,38 30.2508724,38.4 C30.2508724,38.6941126 39.1173516,39.2044808 43.9706018,39.4540784 Z" id="Combined-Shape" fill="#FFFFFF"></path>
                    </g>
                </g>
            </g>
        </g>
    </g>
</svg>