<?xml version="1.0" encoding="UTF-8" standalone="no"?>
<svg width="64px" height="64px" viewBox="0 0 64 64" version="1.1" xmlns="http://www.w3.org/2000/svg" xmlns:xlink="http://www.w3.org/1999/xlink">
    <!-- Generator: Sketch 39.1 (31720) - http://www.bohemiancoding.com/sketch -->
    <title>icon_nvitation_share_fas</title>
    <desc>Created with Sketch.</desc>
    <defs></defs>
    <g id="1.3.7" stroke="none" stroke-width="1" fill="none" fill-rule="evenodd">
        <g id="分享－抽奖" transform="translate(-231.000000, -869.000000)">
            <g id="Group-45" transform="translate(0.000000, 852.000000)">
                <g id="Group-40" transform="translate(126.000000, 17.000000)">
                    <g id="icon_nvitation_share_fas" transform="translate(105.000000, 0.000000)">
                        <ellipse id="Oval-3-Copy-5" fill="#77DA27" cx="32" cy="32" rx="32" ry="32"></ellipse>
                        <path d="M38.955223,50.0089797 C36.734888,50.906079 34.308449,51.4 31.7666485,51.4 C29.7087561,51.4 27.7264814,51.0762425 25.8679807,50.4768839 L25.8679807,36.9348057 C26.2296139,37.384755 26.6416696,37.7924546 27.0955718,38.1493286 L38.955223,50.0089797 Z M40.568831,49.2679667 C44.5128012,47.2298854 47.6598474,43.8649263 49.4194226,39.7636364 L32.3484667,39.7636364 L32.3484667,39.7415915 C32.1564425,39.756199 31.9624141,39.7636364 31.7666485,39.7636364 C31.5177715,39.7636364 31.2717019,39.7516161 31.0289887,39.7281244 L40.568831,49.2679667 Z M24.2030122,49.8527741 C20.1409739,48.110039 16.8012397,45.0062636 14.7575627,41.1152011 L24.2030122,31.6697516 L24.2030122,49.8527741 Z M14.0074861,39.5106565 C13.078872,37.2572958 12.5666485,34.788466 12.5666485,32.2 C12.5666485,30.1421076 12.8904061,28.1598328 13.4897646,26.3013322 L27.0318428,26.3013322 C26.3923991,26.8152658 25.838285,27.4310358 25.3941161,28.1240266 L14.0074861,39.5106565 Z M14.1138745,24.6363636 C15.8603196,20.5656779 18.9736061,17.2203748 22.8763087,15.1778798 L32.3347925,24.6363636 L14.1138745,24.6363636 Z M32.3484667,24.6584085 C32.3514891,24.6586384 32.3545111,24.6588701 32.3575325,24.6591036 L32.3484667,24.6500378 L32.3484667,24.6584085 Z M24.4828452,14.4297952 C26.7289612,13.5081637 29.1884609,13 31.7666485,13 C34.0107152,13 36.1648634,13.384987 38.1666485,14.0925165 L38.1666485,28.1672019 C37.5963662,27.2640689 36.8401981,26.490033 35.9518845,25.8988345 L24.4828452,14.4297952 Z M39.8316171,14.7709009 C43.6839893,16.5565047 46.844738,19.5817519 48.8017727,23.3345518 L39.3042496,32.8320749 C39.321492,32.6236659 39.3302849,32.4128598 39.3302849,32.2 C39.3302849,32.0042345 39.3228476,31.810206 39.30824,31.6181818 L39.8316171,31.6181818 L39.8316171,14.7709009 Z M49.5478618,24.9430838 C50.4625306,27.1819347 50.9666485,29.6320958 50.9666485,32.2 C50.9666485,34.4440667 50.5816615,36.5982149 49.874132,38.6 L35.7994467,38.6 C36.6622761,38.0551673 37.4072736,37.3406694 37.9875774,36.5033682 L49.5478618,24.9430838 Z" id="Combined-Shape" fill="#FFFFFF"></path>
                    </g>
                </g>
            </g>
        </g>
    </g>
</svg>