<?xml version="1.0" encoding="UTF-8" standalone="no"?>
<svg width="64px" height="64px" viewBox="0 0 64 64" version="1.1" xmlns="http://www.w3.org/2000/svg" xmlns:xlink="http://www.w3.org/1999/xlink">
    <!-- Generator: Sketch 39.1 (31720) - http://www.bohemiancoding.com/sketch -->
    <title>icon_invitation_share_wechat</title>
    <desc>Created with Sketch.</desc>
    <defs></defs>
    <g id="1.3.7" stroke="none" stroke-width="1" fill="none" fill-rule="evenodd">
        <g id="分享－抽奖" transform="translate(-126.000000, -869.000000)">
            <g id="Group-45" transform="translate(0.000000, 852.000000)">
                <g id="Group-40" transform="translate(126.000000, 17.000000)">
                    <g id="icon_invitation_share_wechat">
                        <ellipse id="Oval-3" fill="#00CA0D" cx="32" cy="32" rx="32" ry="32"></ellipse>
                        <path d="M27.3522127,41.7295308 C26.7758597,41.7761394 26.1913355,41.8 25.6,41.8 C23.0591779,41.8 20.6441078,41.3594842 18.4626562,40.5667072 C17.2291336,41.1381622 13.9769093,42.9201996 13.9769093,42.9201996 C13.9769093,42.9201996 14.1813562,40.4957276 14.3510856,38.4753483 C10.4704183,35.8339282 8,31.8530084 8,27.4 C8,19.4470996 15.8797884,13 25.6,13 C34.3418812,13 41.595169,18.2146209 42.9666853,25.049444 C42.5164838,25.0167157 42.0606348,25 41.6,25 C33.2052718,25 26.4,30.5516691 26.4,37.4 C26.4,38.9228941 26.7365235,40.3816678 27.3522148,41.7295307 Z M20,25 C21.3254834,25 22.4,23.9254834 22.4,22.6 C22.4,21.2745166 21.3254834,20.2 20,20.2 C18.6745166,20.2 17.6,21.2745166 17.6,22.6 C17.6,23.9254834 18.6745166,25 20,25 Z M51.1120423,46.9157895 C51.2527261,48.5904243 51.4221864,50.6 51.4221864,50.6 C51.4221864,50.6 48.7265104,49.1229201 47.7040787,48.6492573 C45.8959357,49.3063676 43.8941529,49.6714985 41.788138,49.6714985 C33.7313318,49.6714985 27.2,44.3276816 27.2,37.7357493 C27.2,31.143817 33.7313318,25.8 41.788138,25.8 C49.8449441,25.8 56.376276,31.143817 56.376276,37.7357493 C56.376276,41.4267209 54.3286167,44.7263918 51.1120423,46.9157895 Z M46.4,36.2 C47.7254834,36.2 48.8,35.1254834 48.8,33.8 C48.8,32.4745166 47.7254834,31.4 46.4,31.4 C45.0745166,31.4 44,32.4745166 44,33.8 C44,35.1254834 45.0745166,36.2 46.4,36.2 Z M36.8,36.2 C38.1254834,36.2 39.2,35.1254834 39.2,33.8 C39.2,32.4745166 38.1254834,31.4 36.8,31.4 C35.4745166,31.4 34.4,32.4745166 34.4,33.8 C34.4,35.1254834 35.4745166,36.2 36.8,36.2 Z M31.2,25 C32.5254834,25 33.6,23.9254834 33.6,22.6 C33.6,21.2745166 32.5254834,20.2 31.2,20.2 C29.8745166,20.2 28.8,21.2745166 28.8,22.6 C28.8,23.9254834 29.8745166,25 31.2,25 Z" id="Combined-Shape" fill="#FFFFFF"></path>
                    </g>
                </g>
            </g>
        </g>
    </g>
</svg>