<?xml version="1.0" encoding="UTF-8" standalone="no"?>
<svg width="64px" height="64px" viewBox="0 0 64 64" version="1.1" xmlns="http://www.w3.org/2000/svg" xmlns:xlink="http://www.w3.org/1999/xlink">
    <!-- Generator: Sketch 39.1 (31720) - http://www.bohemiancoding.com/sketch -->
    <title>icon_nvitation_share_qq</title>
    <desc>Created with Sketch.</desc>
    <defs></defs>
    <g id="1.3.7" stroke="none" stroke-width="1" fill="none" fill-rule="evenodd">
        <g id="分享－抽奖" transform="translate(-336.000000, -869.000000)">
            <g id="Group-45" transform="translate(0.000000, 852.000000)">
                <g id="Group-40" transform="translate(126.000000, 17.000000)">
                    <g id="icon_nvitation_share_qq" transform="translate(210.000000, 0.000000)">
                        <ellipse id="Oval-3-Copy-6" fill="#37AEE6" cx="32" cy="32" rx="32" ry="32"></ellipse>
                        <path d="M20.2705392,25.4746364 C20.2705392,25.4746364 20.4381638,20.0506204 23.6039884,16.3763935 C25.4116501,14.278438 28.4571701,13 32.3510839,13 C42.5182913,13 43.8699148,21.4433299 43.8699148,24.8947306 C43.8699148,28.3461314 44.3816327,29.7913142 45.6017841,31.5019729 C46.8219354,33.2126315 48.9855551,35.1830966 49.1946829,38.2694125 C49.4038107,41.3557285 48.3700237,42.6277228 48.3700237,42.6277228 C48.3700237,42.6277228 46.8340495,39.3658278 45.7486776,39.3658283 C45.5329669,40.3204276 45.0336874,41.208794 44.5792196,42.09211 C44.1247518,42.975426 43.0645527,44.0733479 43.0645527,44.0733479 C43.0645527,44.0733479 45.5189249,45.3596038 45.5189257,47.7132005 C45.5189265,50.0667972 42.8569689,51.1939518 39.8964417,51.1939523 C36.9359144,51.1939528 32.3510835,48.4956355 32.3510835,48.4956355 C32.3510835,48.4956355 28.4854072,51.3467333 24.0365756,51.3467334 C19.587744,51.3467335 17.8634504,49.2284244 18.7056692,47.3188365 C19.5478881,45.4092486 21.3183308,44.4544532 21.3183308,44.4544532 C21.3183308,44.4544532 20.3397168,42.9963932 19.9407469,41.9074634 C19.5417769,40.8185336 19.3042183,40.6017352 19.1003828,39.365829 C17.6666833,39.7592885 16.3520713,42.5385713 16.3520713,42.5385713 C16.3520713,42.5385713 14.3774948,39.0867037 15.5046487,36.199245 C16.6318026,33.3117864 18.4369494,32.634453 19.4316073,30.7115436 C20.4262652,28.7886342 20.0019011,28.3155519 20.2379285,25.7942644 C20.4739558,23.2729768 20.2705392,25.4746364 20.2705392,25.4746364 Z" id="Path-3" fill="#FFFFFF"></path>
                    </g>
                </g>
            </g>
        </g>
    </g>
</svg>